<svg xmlns="http://www.w3.org/2000/svg" xmlns:xlink="http://www.w3.org/1999/xlink" width="512" zoomAndPan="magnify" viewBox="0 0 384 383.999986" height="512" preserveAspectRatio="xMidYMid meet" version="1.0"><path fill="#ffffff" d="M 373.457031 279.335938 C 370.660156 268.628906 367.769531 258.984375 365.066406 249.628906 C 359.859375 231.785156 354.941406 215.003906 350.695312 193.496094 C 349.058594 185.585938 338.0625 177.097656 317.804688 168.226562 C 311.152344 165.332031 300.253906 160.992188 285.496094 156.457031 L 280.578125 152.214844 C 279.902344 151.636719 279.417969 150.765625 279.324219 149.898438 L 277.683594 136.976562 C 277.683594 137.070312 277.683594 137.167969 277.777344 137.359375 L 277.394531 129.546875 C 277.394531 129.355469 277.296875 129.160156 277.105469 129.066406 C 277.007812 129.066406 277.007812 128.96875 276.910156 128.96875 C 278.261719 125.402344 285.109375 106.6875 288.195312 90.390625 C 290.992188 75.535156 283.085938 62.417969 263.3125 60.683594 C 260.804688 60.488281 258.296875 60.296875 255.980469 60.296875 C 252.894531 55.761719 247.6875 53.0625 242.1875 52.871094 C 239.390625 52.773438 236.015625 53.351562 234.085938 55.570312 C 233.027344 56.824219 232.640625 58.175781 232.832031 59.429688 C 224.730469 58.65625 218.460938 62.515625 216.820312 64.734375 C 213.351562 69.363281 213.0625 75.148438 214.605469 80.550781 C 214.410156 82.382812 214.894531 86.335938 215.183594 87.496094 C 215.953125 90.679688 217.691406 92.605469 218.75 93.476562 C 218.75 93.765625 218.75 93.957031 218.75 93.957031 L 218.558594 106.976562 C 217.113281 121.542969 217.59375 139.578125 220.390625 143.242188 C 221.835938 145.171875 225.886719 145.75 228.976562 145.945312 C 228.6875 147.390625 227.914062 150.765625 227.046875 154.625 C 218.945312 157.421875 176.503906 171.890625 171.875 176.710938 C 169.753906 178.929688 162.617188 193.011719 153.9375 222.527344 L 146.703125 235.066406 L 146.316406 230.050781 C 146.703125 229.953125 146.894531 229.664062 146.894531 229.277344 L 145.253906 209.796875 C 145.160156 209.023438 144.773438 208.253906 144.195312 207.769531 C 143.617188 207.289062 142.84375 207.09375 142.074219 207.289062 L 141.78125 207.382812 C 141.398438 202.078125 140.914062 196.679688 140.238281 193.976562 C 138.984375 189.058594 136.960938 188.285156 133.101562 186.9375 C 132.523438 186.742188 131.847656 186.453125 131.078125 186.261719 C 130.113281 185.875 129.050781 185.683594 127.992188 185.394531 C 126.15625 185.007812 124.230469 184.523438 122.878906 183.367188 C 121.144531 181.824219 120.757812 179.125 120.46875 176.710938 C 120.371094 176.328125 120.371094 175.941406 120.273438 175.554688 C 120.179688 174.976562 120.082031 174.398438 119.984375 173.820312 C 119.792969 172.757812 119.597656 171.601562 119.503906 170.539062 C 118.925781 165.8125 115.546875 163.402344 112.75 163.691406 C 111.015625 163.882812 109.085938 165.234375 109.375 168.609375 C 109.570312 170.441406 109.570312 178.351562 109.570312 183.65625 C 108.316406 179.125 106.675781 172.949219 106.289062 171.792969 L 105.808594 170.636719 C 104.554688 167.261719 103.203125 163.691406 101.175781 160.703125 C 99.828125 158.675781 96.933594 155.203125 92.496094 155.011719 C 90.566406 154.914062 88.734375 155.6875 87.578125 156.941406 C 85.070312 154.144531 82.371094 153.082031 79.476562 153.757812 C 76.679688 154.335938 75.136719 156.359375 74.941406 159.351562 C 73.976562 159.253906 73.109375 159.449219 72.242188 159.929688 C 68.960938 161.957031 69.925781 166.101562 70.503906 168.417969 C 71.953125 174.300781 77.933594 186.648438 78.511719 187.128906 C 83.140625 190.890625 88.058594 194.363281 92.882812 197.738281 C 94.714844 198.992188 96.546875 200.246094 98.285156 201.597656 C 98.574219 201.789062 98.863281 201.984375 99.152344 202.175781 C 100.210938 202.851562 101.464844 203.71875 101.851562 204.78125 C 102.140625 205.648438 102.527344 210.085938 102.816406 214.8125 L 97.03125 215.871094 C 95.777344 216.066406 94.90625 217.222656 94.8125 218.476562 L 94.039062 237.476562 C 94.039062 237.667969 94.039062 237.957031 94.234375 238.054688 C 94.328125 238.152344 94.328125 238.152344 94.90625 238.152344 C 95.488281 238.152344 96.449219 238.054688 98.476562 237.765625 C 99.441406 246.445312 101.082031 262.652344 102.816406 288.113281 C 103.203125 294.574219 113.136719 304.027344 122.6875 309.910156 C 126.929688 312.515625 137.347656 318.398438 143.328125 315.890625 C 153.164062 311.839844 178.339844 294.960938 181.039062 287.632812 C 181.039062 287.535156 181.136719 287.535156 181.136719 287.4375 L 182.484375 300.941406 L 172.9375 382.828125 C 172.9375 383.023438 172.9375 383.214844 173.128906 383.3125 C 173.226562 383.40625 173.417969 383.503906 173.613281 383.503906 L 186.34375 382.925781 C 186.632812 382.925781 186.824219 382.730469 186.921875 382.539062 L 188.273438 378.875 L 277.875 378.679688 L 280.191406 383.3125 C 280.285156 383.503906 280.480469 383.695312 280.769531 383.695312 L 329.960938 383.695312 C 330.152344 383.695312 330.34375 383.601562 330.441406 383.503906 C 330.539062 383.40625 330.632812 383.214844 330.632812 383.019531 L 325.039062 335.855469 C 351.371094 342.800781 366.515625 342.511719 374.132812 334.890625 C 383.296875 325.730469 380.5 306.054688 373.457031 279.335938 Z M 277.394531 136.394531 C 277.585938 136.492188 277.683594 136.78125 277.683594 136.878906 C 277.683594 136.683594 277.585938 136.589844 277.394531 136.394531 Z M 221.453125 157.90625 Z M 277.199219 377.523438 Z M 324.269531 334.988281 Z M 324.269531 334.988281 " fill-opacity="1" fill-rule="nonzero"/><path fill="#ffffff" d="M 92.398438 144.207031 C 94.523438 144.207031 96.546875 143.4375 98.1875 141.796875 L 118.054688 122.023438 C 119.308594 120.769531 121.046875 120 122.878906 120 L 171.394531 120 C 176.988281 120 181.519531 115.464844 181.519531 109.871094 L 181.519531 10.335938 C 181.519531 4.738281 176.988281 0.207031 171.394531 0.207031 L 10.128906 0.207031 C 4.535156 0.207031 0 4.738281 0 10.335938 L 0 109.96875 C 0 115.5625 4.535156 120.09375 10.128906 120.09375 L 61.921875 120.09375 C 63.753906 120.09375 65.492188 120.769531 66.746094 122.121094 L 86.613281 141.894531 C 88.15625 143.4375 90.277344 144.207031 92.398438 144.207031 Z M 92.398438 144.207031 " fill-opacity="1" fill-rule="nonzero"/><path fill="#ffffff" d="M 171.296875 0.882812 L 10.128906 0.882812 C 4.917969 0.882812 0.675781 5.125 0.675781 10.335938 L 0.675781 109.96875 C 0.675781 115.175781 4.917969 119.421875 10.128906 119.421875 L 61.921875 119.421875 C 63.945312 119.421875 65.78125 120.191406 67.226562 121.640625 L 87.09375 141.410156 C 89.988281 144.304688 94.8125 144.304688 97.703125 141.410156 L 117.574219 121.640625 C 119.019531 120.191406 120.851562 119.421875 122.878906 119.421875 L 171.394531 119.421875 C 176.601562 119.421875 180.847656 115.175781 180.847656 109.96875 L 180.847656 10.335938 C 180.75 5.125 176.503906 0.882812 171.296875 0.882812 Z M 52.855469 90.582031 C 52.855469 95.210938 49.09375 98.875 44.558594 98.875 C 40.027344 98.875 36.265625 95.113281 36.265625 90.582031 L 36.265625 89.328125 C 36.265625 88.460938 36.941406 87.785156 37.808594 87.785156 L 51.410156 87.785156 C 52.277344 87.785156 52.953125 88.460938 52.953125 89.328125 C 52.855469 89.328125 52.855469 90.582031 52.855469 90.582031 Z M 53.917969 75.535156 C 53.335938 75.726562 52.953125 76.308594 52.953125 76.980469 L 52.953125 80.550781 C 52.953125 81.417969 52.277344 82.09375 51.410156 82.09375 L 37.808594 82.09375 C 36.941406 82.09375 36.265625 81.417969 36.265625 80.550781 L 36.265625 76.980469 C 36.265625 76.308594 35.878906 75.726562 35.300781 75.535156 C 24.789062 71.773438 17.359375 61.742188 17.359375 49.976562 C 17.359375 35.507812 28.644531 23.644531 43.015625 22.777344 C 43.886719 22.679688 44.65625 23.453125 44.65625 24.320312 L 44.65625 48.433594 C 44.65625 49.300781 45.332031 49.976562 46.199219 49.976562 L 70.3125 49.976562 C 71.179688 49.976562 71.855469 50.746094 71.855469 51.617188 C 71.085938 62.609375 63.851562 71.871094 53.917969 75.535156 Z M 77.066406 44.09375 L 52.953125 44.09375 C 52.082031 44.09375 51.410156 43.417969 51.410156 42.550781 L 51.410156 18.4375 C 51.410156 17.566406 52.179688 16.894531 53.046875 16.894531 C 66.839844 17.664062 77.835938 28.660156 78.609375 42.453125 C 78.609375 43.417969 77.933594 44.09375 77.066406 44.09375 Z M 103.011719 91.933594 C 103.011719 94.730469 100.695312 97.042969 97.898438 97.042969 C 95.101562 97.042969 92.785156 94.730469 92.785156 91.933594 L 92.785156 30.78125 C 92.785156 27.984375 95.101562 25.671875 97.898438 25.671875 C 100.695312 25.671875 103.011719 27.984375 103.011719 30.78125 Z M 122.589844 91.933594 C 122.589844 94.730469 120.273438 97.042969 117.476562 97.042969 C 114.679688 97.042969 112.367188 94.730469 112.367188 91.933594 L 112.367188 54.605469 C 112.367188 51.808594 114.679688 49.492188 117.476562 49.492188 C 120.273438 49.492188 122.589844 51.808594 122.589844 54.605469 Z M 142.167969 91.933594 C 142.167969 94.730469 139.855469 97.042969 137.058594 97.042969 C 134.261719 97.042969 131.945312 94.730469 131.945312 91.933594 L 131.945312 63.960938 C 131.945312 61.164062 134.261719 58.847656 137.058594 58.847656 C 139.855469 58.847656 142.167969 61.164062 142.167969 63.960938 Z M 160.300781 91.933594 C 160.300781 94.730469 157.988281 97.042969 155.191406 97.042969 C 152.394531 97.042969 150.078125 94.730469 150.078125 91.933594 L 150.078125 73.027344 C 150.078125 70.230469 152.394531 67.914062 155.191406 67.914062 C 157.988281 67.914062 160.300781 70.230469 160.300781 73.027344 Z M 262.636719 348.683594 L 277.585938 378.101562 L 188.464844 378.296875 L 199.171875 347.914062 Z M 263.214844 340.195312 L 263.023438 347.335938 Z M 220.96875 142.859375 C 218.269531 139.480469 217.882812 121.542969 219.328125 107.074219 L 219.523438 93.957031 C 219.523438 93.957031 219.621094 90.390625 219.621094 86.917969 C 219.621094 86.144531 222.03125 85.566406 222.800781 85.855469 C 225.597656 87.011719 231.964844 88.84375 238.332031 85.953125 C 244.3125 83.25 251.929688 85.375 255.015625 86.628906 C 255.886719 87.011719 256.367188 87.785156 256.269531 88.75 C 255.980469 91.835938 255.304688 101 255.402344 102.15625 C 255.402344 102.15625 256.367188 106.015625 258.683594 108.90625 C 260.320312 103.410156 265.433594 100.128906 270.160156 101.382812 C 274.980469 102.734375 277.585938 108.328125 276.042969 113.921875 C 274.691406 118.746094 270.640625 121.929688 266.398438 121.832031 C 267.265625 124.050781 268.132812 125.980469 268.808594 126.847656 C 271.800781 130.898438 276.816406 129.453125 276.816406 129.453125 L 277.199219 136.878906 L 278.839844 149.898438 C 278.9375 150.960938 279.515625 151.925781 280.285156 152.601562 L 285.300781 156.84375 C 285.300781 156.84375 271.511719 201.691406 271.511719 201.691406 C 271.21875 204.492188 268.132812 205.070312 266.589844 202.753906 L 244.792969 168.128906 L 223.285156 199.378906 C 222.320312 200.921875 220.101562 200.4375 219.910156 198.605469 L 224.441406 171.890625 C 225.40625 165.910156 230.035156 145.171875 230.035156 145.171875 L 230.132812 145.171875 C 226.949219 145.171875 222.417969 144.691406 220.96875 142.859375 Z M 295.910156 324.28125 C 298.804688 313.289062 307.777344 274.128906 307.777344 274.128906 L 333.140625 280.785156 L 341.628906 228.796875 L 324.847656 226.09375 L 323.207031 203.238281 L 233.992188 209.699219 L 237.558594 259.371094 C 235.628906 259.082031 234.085938 258.792969 233.699219 258.695312 C 232.832031 258.40625 231.867188 258.117188 230.902344 258.40625 C 229.070312 258.984375 228.78125 261.105469 228.78125 262.746094 C 228.78125 264.773438 229.265625 266.894531 230.230469 268.726562 C 230.421875 269.113281 232.0625 269.59375 232.253906 269.980469 C 232.542969 270.558594 232.445312 270.753906 232.253906 271.332031 C 231.964844 272.199219 231.773438 273.066406 231.675781 273.933594 C 231.386719 277.214844 234.28125 280.589844 236.5 283.097656 C 234.664062 285.796875 237.269531 291.875 240.066406 295.25 L 240.066406 295.539062 L 233.605469 335.472656 L 321.953125 349.84375 L 324.363281 335.085938 Z M 261.574219 228.023438 L 329.1875 239.019531 L 327.546875 249.339844 L 259.9375 238.34375 Z M 144.582031 209.890625 L 146.21875 229.375 C 146.21875 229.375 94.617188 238.34375 94.714844 237.667969 L 95.488281 218.667969 C 95.488281 217.703125 96.257812 216.835938 97.125 216.738281 L 103.492188 215.484375 C 103.203125 211.050781 102.71875 205.746094 102.429688 204.683594 C 101.949219 203.042969 99.921875 202.078125 98.574219 201.113281 C 92.015625 196.386719 85.167969 191.757812 78.800781 186.648438 C 78.511719 186.453125 72.53125 174.398438 71.085938 168.320312 C 70.503906 165.71875 69.734375 162.246094 72.53125 160.605469 C 73.59375 159.929688 74.652344 159.929688 75.617188 160.316406 C 75.425781 157.710938 76.390625 155.203125 79.570312 154.527344 C 82.949219 153.757812 85.550781 155.6875 87.578125 158.097656 C 88.542969 156.554688 90.472656 155.6875 92.496094 155.78125 C 95.96875 155.976562 98.765625 158.386719 100.597656 161.183594 C 102.816406 164.464844 104.167969 168.417969 105.613281 172.179688 C 106.289062 173.914062 110.242188 188.960938 110.242188 188.960938 C 110.242188 188.960938 110.339844 171.503906 110.050781 168.609375 C 109.472656 162.246094 117.960938 163.113281 118.925781 170.734375 C 119.117188 172.371094 119.40625 174.109375 119.695312 175.746094 C 120.082031 178.449219 120.273438 181.921875 122.492188 183.945312 C 124.710938 185.972656 128.183594 185.875 130.882812 186.9375 C 136.285156 188.960938 138.214844 188.867188 139.660156 194.171875 C 140.433594 196.96875 140.914062 202.65625 141.203125 208.15625 L 142.265625 207.960938 C 143.328125 207.769531 144.484375 208.636719 144.582031 209.890625 Z M 144.582031 209.890625 " fill-opacity="1" fill-rule="nonzero"/><path fill="#000000" d="M 288.195312 90.390625 C 284.722656 108.523438 276.71875 129.546875 276.71875 129.546875 C 276.71875 129.546875 271.703125 130.996094 268.714844 126.945312 C 268.039062 125.980469 267.167969 124.050781 266.300781 121.929688 C 270.449219 122.023438 274.597656 118.839844 275.945312 114.019531 C 277.488281 108.425781 274.886719 102.832031 270.0625 101.480469 C 265.335938 100.128906 260.226562 103.507812 258.585938 109.003906 C 256.269531 106.207031 255.304688 102.253906 255.304688 102.253906 C 255.210938 101.09375 255.886719 91.933594 256.175781 88.84375 C 256.269531 87.976562 255.789062 87.109375 254.921875 86.722656 C 251.738281 85.375 244.214844 83.25 238.234375 86.046875 C 231.867188 88.941406 225.503906 87.109375 222.707031 85.953125 C 222.03125 85.664062 219.621094 86.242188 219.523438 87.011719 C 219.523438 90.484375 219.425781 94.054688 219.425781 94.054688 C 219.425781 94.054688 216.339844 92.027344 215.277344 87.589844 C 214.988281 86.433594 214.507812 82.480469 214.699219 80.648438 C 213.15625 75.34375 213.542969 69.457031 216.917969 64.828125 C 218.558594 62.609375 224.828125 58.847656 232.929688 59.523438 C 232.832031 58.175781 233.121094 56.921875 234.183594 55.667969 C 236.113281 53.351562 239.390625 52.871094 242.285156 52.964844 C 247.78125 53.160156 252.992188 55.859375 256.078125 60.390625 C 258.488281 60.488281 260.898438 60.585938 263.40625 60.777344 C 283.085938 62.417969 290.992188 75.535156 288.195312 90.390625 Z M 329.285156 239.019531 L 261.671875 228.023438 L 260.03125 238.34375 L 327.644531 249.339844 Z M 51.410156 18.4375 L 51.410156 42.550781 C 51.410156 43.417969 52.082031 44.09375 52.953125 44.09375 L 77.066406 44.09375 C 77.933594 44.09375 78.609375 43.320312 78.609375 42.453125 C 77.835938 28.660156 66.839844 17.664062 53.046875 16.894531 C 52.082031 16.894531 51.410156 17.566406 51.410156 18.4375 Z M 122.589844 91.933594 L 122.589844 54.605469 C 122.589844 51.808594 120.273438 49.492188 117.476562 49.492188 C 114.679688 49.492188 112.367188 51.808594 112.367188 54.605469 L 112.367188 91.933594 C 112.367188 94.730469 114.679688 97.042969 117.476562 97.042969 C 120.273438 96.949219 122.589844 94.730469 122.589844 91.933594 Z M 160.300781 91.933594 L 160.300781 73.027344 C 160.300781 70.230469 157.988281 67.914062 155.191406 67.914062 C 152.394531 67.914062 150.078125 70.230469 150.078125 73.027344 L 150.078125 91.933594 C 150.078125 94.730469 152.394531 97.042969 155.191406 97.042969 C 158.082031 96.949219 160.300781 94.730469 160.300781 91.933594 Z M 160.300781 91.933594 " fill-opacity="1" fill-rule="nonzero"/><path fill="#e1f1fe" d="M 263.214844 340.195312 L 263.023438 348.007812 L 198.6875 347.335938 C 198.6875 347.335938 201.777344 264.097656 204.574219 236.414062 C 207.175781 210.855469 221.644531 157.132812 221.644531 157.132812 C 224.34375 156.167969 226.46875 155.492188 227.625 155.105469 C 226.273438 161.375 224.730469 168.804688 224.25 171.988281 L 219.714844 198.703125 C 219.910156 200.535156 222.128906 201.019531 223.089844 199.476562 L 241.707031 172.46875 L 234.472656 182.980469 L 234.183594 196.484375 C 222.996094 234.488281 219.910156 322.160156 220.101562 322.644531 L 230.421875 338.460938 C 230.808594 339.039062 231.675781 339.136719 232.0625 338.558594 L 234.375 335.472656 Z M 252.605469 181.148438 L 254.632812 184.429688 Z M 246.820312 208.636719 L 273.148438 206.707031 L 285.109375 156.941406 C 285.109375 156.941406 271.316406 201.789062 271.316406 201.789062 C 271.027344 204.585938 267.941406 205.164062 266.398438 202.851562 L 254.726562 184.332031 L 247.398438 197.738281 C 247.203125 199.765625 247.011719 203.621094 246.820312 208.636719 Z M 244.695312 168.515625 L 244.503906 168.226562 L 244.214844 168.609375 C 244.40625 168.515625 244.601562 168.515625 244.695312 168.515625 Z M 103.011719 91.933594 L 103.011719 30.78125 C 103.011719 27.984375 100.695312 25.671875 97.898438 25.671875 C 95.101562 25.671875 92.785156 27.984375 92.785156 30.78125 L 92.785156 91.933594 C 92.785156 94.730469 95.101562 97.042969 97.898438 97.042969 C 100.695312 96.949219 103.011719 94.730469 103.011719 91.933594 Z M 142.167969 91.933594 L 142.167969 63.960938 C 142.167969 61.164062 139.855469 58.847656 137.058594 58.847656 C 134.261719 58.847656 131.945312 61.164062 131.945312 63.960938 L 131.945312 91.933594 C 131.945312 94.730469 134.261719 97.042969 137.058594 97.042969 C 139.855469 96.949219 142.167969 94.730469 142.167969 91.933594 Z M 142.167969 91.933594 " fill-opacity="1" fill-rule="nonzero"/><path fill="#2b92f3" d="M 373.457031 279.335938 C 370.660156 268.628906 367.769531 258.984375 365.066406 249.628906 C 359.859375 231.785156 354.941406 215.003906 350.695312 193.496094 C 349.058594 185.585938 338.0625 177 317.804688 168.226562 C 311.152344 165.332031 300.253906 160.992188 285.496094 156.457031 L 280.578125 152.214844 C 279.902344 151.636719 279.417969 150.765625 279.324219 149.898438 L 277.683594 136.878906 C 277.683594 136.589844 277.488281 136.394531 277.199219 136.300781 C 276.910156 136.203125 276.71875 136.300781 276.527344 136.589844 C 276.332031 136.878906 258.199219 161.375 244.601562 159.0625 C 239.488281 158.195312 235.535156 153.46875 233.027344 145.078125 C 232.929688 144.789062 232.738281 144.59375 232.445312 144.59375 L 229.84375 144.59375 C 229.457031 144.59375 229.265625 144.789062 229.167969 145.078125 C 229.167969 145.171875 228.203125 149.417969 227.140625 154.625 C 218.945312 157.421875 176.503906 171.890625 171.875 176.710938 C 169.753906 178.929688 162.617188 193.011719 153.9375 222.527344 L 146.703125 235.066406 L 146.316406 230.050781 C 145.835938 230.144531 145.449219 230.242188 145.0625 230.242188 C 116.320312 235.257812 103.878906 237.1875 98.574219 237.863281 C 99.539062 246.542969 101.175781 262.746094 102.914062 288.210938 C 103.300781 294.671875 113.234375 304.125 122.78125 310.007812 C 127.027344 312.613281 137.441406 318.496094 143.421875 315.988281 C 153.261719 311.9375 178.433594 295.058594 181.136719 287.726562 C 181.136719 287.632812 181.230469 287.632812 181.230469 287.535156 L 182.582031 301.039062 L 173.035156 382.925781 C 173.035156 383.117188 173.035156 383.3125 173.226562 383.40625 C 173.324219 383.503906 173.515625 383.601562 173.707031 383.601562 L 186.441406 383.019531 C 186.730469 383.019531 186.921875 382.828125 187.019531 382.636719 L 188.367188 378.96875 L 277.972656 378.777344 L 280.285156 383.40625 C 280.382812 383.601562 280.578125 383.792969 280.867188 383.792969 L 330.054688 383.792969 C 330.25 383.792969 330.441406 383.695312 330.539062 383.601562 C 330.632812 383.503906 330.730469 383.3125 330.730469 383.117188 L 325.039062 335.855469 C 351.371094 342.800781 366.515625 342.511719 374.132812 334.890625 C 383.296875 325.730469 380.5 306.054688 373.457031 279.335938 Z M 230.230469 145.945312 L 231.867188 145.945312 C 234.570312 154.527344 238.8125 159.449219 244.40625 160.316406 C 250.484375 161.375 257.910156 157.808594 266.589844 149.707031 C 271.21875 145.367188 274.980469 140.734375 276.71875 138.613281 L 278.164062 149.996094 C 278.359375 151.25 278.9375 152.308594 279.804688 153.082031 L 284.433594 157.132812 L 270.738281 201.597656 C 270.738281 201.597656 270.738281 201.691406 270.738281 201.691406 C 270.640625 202.65625 270.0625 203.332031 269.386719 203.527344 C 268.519531 203.71875 267.652344 203.332031 267.074219 202.464844 L 245.273438 167.839844 C 245.179688 167.644531 244.984375 167.550781 244.695312 167.550781 C 244.503906 167.550781 244.3125 167.644531 244.117188 167.839844 L 222.609375 199.089844 C 222.222656 199.667969 221.644531 199.765625 221.257812 199.667969 C 220.777344 199.570312 220.488281 199.1875 220.390625 198.703125 L 224.925781 172.082031 C 225.695312 166.777344 229.554688 149.222656 230.230469 145.945312 Z M 188.660156 377.714844 L 199.171875 348.007812 L 262.636719 348.683594 L 277.199219 377.425781 Z M 333.046875 280.785156 L 307.679688 274.128906 C 307.679688 274.128906 298.804688 313.289062 295.816406 324.28125 L 324.171875 334.988281 C 324.363281 335.085938 324.65625 335.085938 324.847656 335.183594 L 324.460938 337.496094 L 324.171875 335.085938 L 321.761719 349.84375 L 263.117188 340.292969 L 262.925781 347.429688 L 198.6875 346.753906 C 198.785156 345.117188 198.882812 340.679688 199.171875 334.21875 C 199.171875 333.832031 199.171875 333.347656 199.269531 332.867188 C 200.328125 307.789062 202.546875 256.863281 204.574219 236.414062 C 206.984375 212.59375 219.714844 164.464844 221.453125 157.90625 C 223.285156 157.230469 225.019531 156.652344 226.757812 156.070312 C 225.503906 162.050781 224.054688 168.898438 223.574219 171.890625 L 219.039062 198.605469 C 219.039062 198.703125 219.039062 198.703125 219.039062 198.800781 C 219.136719 199.957031 219.910156 200.824219 220.875 201.019531 C 221.933594 201.308594 222.996094 200.824219 223.574219 199.859375 L 234.375 184.234375 L 234.085938 196.484375 C 222.898438 234.488281 219.8125 322.160156 220.003906 322.644531 L 230.324219 338.460938 C 230.710938 339.039062 231.578125 339.136719 231.964844 338.558594 L 234.28125 335.472656 L 233.699219 335.375 L 240.164062 295.445312 L 240.164062 295.15625 C 237.269531 291.777344 234.664062 285.796875 236.59375 283 C 234.375 280.589844 231.386719 277.214844 231.773438 273.839844 C 231.867188 272.875 232.0625 272.101562 232.351562 271.234375 C 232.542969 270.558594 232.640625 270.464844 232.351562 269.882812 C 232.15625 269.402344 230.613281 269.015625 230.324219 268.628906 C 229.359375 266.796875 228.878906 264.773438 228.878906 262.652344 C 228.878906 261.011719 229.167969 258.890625 231 258.308594 C 231.964844 258.019531 232.929688 258.308594 233.796875 258.597656 C 234.183594 258.695312 235.726562 258.984375 237.65625 259.273438 L 234.085938 209.601562 L 247.109375 208.636719 C 247.300781 203.621094 247.492188 199.765625 247.589844 197.738281 L 254.535156 185.007812 L 266.011719 203.238281 C 266.785156 204.394531 267.941406 204.972656 269.003906 204.972656 C 269.292969 204.972656 269.484375 204.972656 269.773438 204.875 C 271.027344 204.585938 271.894531 203.429688 272.089844 201.984375 L 282.890625 166.972656 L 273.34375 206.707031 L 323.304688 203.140625 L 324.945312 226 L 341.726562 228.699219 Z M 52.855469 89.328125 L 52.855469 90.582031 C 52.855469 95.210938 49.09375 98.875 44.558594 98.875 C 40.027344 98.875 36.265625 95.113281 36.265625 90.582031 L 36.265625 89.328125 C 36.265625 88.460938 36.941406 87.785156 37.808594 87.785156 L 51.410156 87.785156 C 52.179688 87.785156 52.855469 88.460938 52.855469 89.328125 Z M 71.757812 51.519531 C 71.085938 62.609375 63.851562 71.871094 53.917969 75.535156 C 53.335938 75.726562 52.953125 76.308594 52.953125 76.980469 L 52.953125 80.550781 C 52.953125 81.417969 52.277344 82.09375 51.410156 82.09375 L 37.808594 82.09375 C 36.941406 82.09375 36.265625 81.417969 36.265625 80.550781 L 36.265625 76.980469 C 36.265625 76.308594 35.878906 75.726562 35.300781 75.535156 C 24.789062 71.773438 17.359375 61.742188 17.359375 49.976562 C 17.359375 35.507812 28.644531 23.644531 43.015625 22.777344 C 43.886719 22.679688 44.65625 23.453125 44.65625 24.320312 L 44.65625 48.433594 C 44.65625 49.300781 45.332031 49.976562 46.199219 49.976562 L 70.3125 49.976562 C 71.085938 49.976562 71.855469 50.652344 71.757812 51.519531 Z M 71.757812 51.519531 " fill-opacity="1" fill-rule="nonzero"/><path fill="#000000" d="M 181.425781 10.335938 C 181.425781 4.738281 176.890625 0.207031 171.296875 0.207031 L 10.128906 0.207031 C 4.535156 0.207031 0 4.738281 0 10.335938 L 0 109.96875 C 0 115.5625 4.535156 120.09375 10.128906 120.09375 L 61.921875 120.09375 C 63.753906 120.09375 65.492188 120.769531 66.746094 122.121094 L 86.613281 141.894531 C 88.253906 143.4375 90.277344 144.304688 92.398438 144.304688 C 94.523438 144.304688 96.546875 143.535156 98.1875 141.894531 L 118.054688 122.121094 C 119.308594 120.867188 121.046875 120.09375 122.878906 120.09375 L 171.394531 120.09375 C 176.988281 120.09375 181.519531 115.5625 181.519531 109.96875 Z M 180.074219 109.96875 C 180.074219 114.789062 176.121094 118.746094 171.296875 118.746094 L 122.78125 118.746094 C 120.5625 118.746094 118.539062 119.613281 116.996094 121.15625 L 97.125 140.929688 C 94.425781 143.535156 90.183594 143.535156 87.480469 140.929688 L 67.613281 121.15625 C 66.070312 119.613281 64.042969 118.746094 61.824219 118.746094 L 10.128906 118.746094 C 5.304688 118.746094 1.351562 114.789062 1.351562 109.96875 L 1.351562 10.335938 C 1.351562 5.511719 5.304688 1.558594 10.128906 1.558594 L 171.394531 1.558594 C 176.214844 1.558594 180.171875 5.511719 180.171875 10.335938 Z M 185.28125 198.414062 L 182.003906 285.125 C 182.003906 285.507812 181.714844 285.796875 181.328125 285.796875 C 180.941406 285.796875 180.652344 285.507812 180.652344 285.125 L 183.933594 198.414062 C 183.933594 198.027344 184.316406 197.738281 184.609375 197.738281 C 185.089844 197.738281 185.378906 198.027344 185.28125 198.414062 Z M 146.894531 229.277344 L 145.253906 209.796875 C 145.160156 209.023438 144.773438 208.253906 144.195312 207.769531 C 143.617188 207.289062 142.84375 207.09375 142.074219 207.289062 L 141.78125 207.382812 C 141.398438 202.078125 140.914062 196.679688 140.238281 193.976562 C 138.984375 189.058594 136.960938 188.285156 133.101562 186.9375 C 132.523438 186.742188 131.847656 186.453125 131.078125 186.261719 C 130.113281 185.875 129.050781 185.683594 127.992188 185.394531 C 126.15625 185.007812 124.230469 184.523438 122.878906 183.367188 C 121.144531 181.824219 120.757812 179.125 120.46875 176.710938 C 120.371094 176.328125 120.371094 175.941406 120.273438 175.554688 C 120.179688 174.976562 120.082031 174.398438 119.984375 173.820312 C 119.792969 172.757812 119.597656 171.601562 119.503906 170.539062 C 118.925781 165.8125 115.546875 163.402344 112.75 163.691406 C 111.015625 163.882812 109.085938 165.234375 109.375 168.609375 C 109.570312 170.441406 109.570312 178.351562 109.570312 183.65625 C 108.316406 179.125 106.675781 172.949219 106.289062 171.792969 L 105.808594 170.636719 C 104.554688 167.261719 103.203125 163.691406 101.175781 160.703125 C 99.828125 158.675781 96.933594 155.203125 92.496094 155.011719 C 90.566406 154.914062 88.734375 155.6875 87.578125 156.941406 C 85.070312 154.144531 82.371094 153.082031 79.476562 153.757812 C 76.679688 154.335938 75.136719 156.359375 74.941406 159.351562 C 73.976562 159.253906 73.109375 159.449219 72.242188 159.929688 C 68.960938 161.957031 69.925781 166.101562 70.503906 168.417969 C 71.953125 174.300781 77.933594 186.648438 78.511719 187.128906 C 83.140625 190.890625 88.058594 194.363281 92.882812 197.738281 C 94.714844 198.992188 96.546875 200.246094 98.285156 201.597656 C 98.574219 201.789062 98.863281 201.984375 99.152344 202.175781 C 100.210938 202.851562 101.464844 203.71875 101.851562 204.78125 C 102.140625 205.648438 102.527344 210.085938 102.816406 214.8125 L 97.03125 215.871094 C 95.777344 216.066406 94.90625 217.222656 94.8125 218.476562 L 94.039062 237.476562 C 94.039062 237.667969 94.039062 237.957031 94.234375 238.054688 C 94.328125 238.152344 94.425781 238.152344 94.90625 238.152344 C 96.933594 238.152344 105.613281 236.996094 146.316406 229.953125 C 146.703125 229.953125 146.992188 229.664062 146.894531 229.277344 Z M 99.921875 201.113281 C 99.632812 200.921875 99.34375 200.730469 99.054688 200.535156 C 97.222656 199.28125 95.488281 197.933594 93.652344 196.679688 C 88.929688 193.300781 84.007812 189.828125 79.378906 186.164062 C 78.703125 185.105469 73.207031 173.820312 71.757812 168.128906 C 71.085938 165.425781 70.601562 162.535156 72.820312 161.085938 C 73.496094 160.703125 74.265625 160.605469 74.941406 160.796875 C 75.8125 163.5 81.019531 179.605469 84.585938 183.367188 C 84.683594 183.464844 84.878906 183.558594 85.070312 183.558594 C 85.261719 183.558594 85.457031 183.464844 85.550781 183.367188 C 85.839844 183.078125 85.839844 182.691406 85.550781 182.402344 C 82.078125 178.738281 76.582031 161.472656 76.101562 160.121094 C 76.003906 158.195312 76.484375 155.78125 79.476562 155.105469 C 82.078125 154.527344 84.296875 155.589844 86.710938 158.386719 C 87.191406 160.121094 91.4375 175.363281 93.945312 179.605469 C 94.039062 179.800781 94.328125 179.992188 94.523438 179.992188 C 94.617188 179.992188 94.714844 179.992188 94.8125 179.894531 C 95.101562 179.703125 95.292969 179.316406 95.101562 178.929688 C 92.785156 174.878906 88.734375 160.507812 88.058594 158.195312 C 88.929688 157.035156 90.566406 156.265625 92.207031 156.457031 C 95.96875 156.652344 98.574219 159.738281 99.828125 161.570312 C 101.757812 164.464844 103.011719 167.933594 104.265625 171.214844 L 104.746094 172.371094 C 105.421875 174.109375 109.277344 188.960938 109.375 189.15625 C 109.472656 189.445312 109.761719 189.734375 110.148438 189.636719 C 110.53125 189.636719 110.726562 189.347656 110.726562 188.960938 C 110.726562 188.285156 110.824219 171.503906 110.53125 168.609375 C 110.339844 166.585938 111.207031 165.332031 112.75 165.136719 C 114.96875 164.945312 117.574219 167.066406 118.054688 170.828125 C 118.152344 171.984375 118.34375 173.046875 118.539062 174.203125 C 118.636719 174.785156 118.730469 175.363281 118.828125 175.84375 C 118.925781 176.230469 118.925781 176.617188 119.019531 177 C 119.40625 179.605469 119.792969 182.597656 121.914062 184.429688 C 123.457031 185.875 125.578125 186.359375 127.703125 186.742188 C 128.761719 186.9375 129.726562 187.226562 130.59375 187.515625 C 131.367188 187.804688 132.042969 187.996094 132.621094 188.285156 C 136.476562 189.636719 137.828125 190.117188 138.890625 194.363281 C 139.566406 196.96875 140.046875 202.367188 140.433594 207.671875 L 104.167969 214.617188 C 103.878906 210.277344 103.492188 205.453125 103.105469 204.492188 C 102.625 202.945312 101.175781 201.984375 99.921875 201.113281 Z M 95.390625 236.898438 L 96.160156 218.667969 C 96.160156 217.992188 96.644531 217.414062 97.222656 217.320312 L 142.265625 208.734375 C 142.652344 208.636719 142.941406 208.734375 143.230469 208.925781 C 143.519531 209.121094 143.710938 209.507812 143.808594 209.988281 L 145.449219 228.796875 C 126.929688 231.980469 99.921875 236.511719 95.390625 236.898438 Z M 146.894531 237.089844 L 150.847656 267.472656 C 150.945312 267.859375 150.65625 268.148438 150.269531 268.246094 C 150.269531 268.246094 150.175781 268.246094 150.175781 268.246094 C 149.789062 268.246094 149.5 267.957031 149.5 267.664062 L 145.542969 237.285156 C 145.449219 236.898438 145.738281 236.609375 146.125 236.511719 C 146.507812 236.414062 146.894531 236.703125 146.894531 237.089844 Z M 236.59375 109.292969 C 234.953125 109.101562 235.050781 106.207031 236.113281 105.144531 C 236.980469 104.277344 237.558594 104.761719 237.847656 105.339844 C 238.136719 105.917969 238.234375 106.59375 238.136719 107.269531 C 238.042969 108.230469 237.65625 109.484375 236.59375 109.292969 Z M 234.859375 99.070312 C 234.472656 99.164062 234.085938 98.972656 233.992188 98.585938 C 233.894531 98.203125 234.085938 97.816406 234.472656 97.71875 C 240.933594 95.597656 244.792969 99.9375 244.890625 100.128906 C 245.179688 100.417969 245.082031 100.902344 244.792969 101.191406 C 244.695312 101.289062 244.503906 101.382812 244.3125 101.382812 C 244.117188 101.382812 243.925781 101.289062 243.730469 101.09375 C 243.636719 100.902344 240.453125 97.332031 234.859375 99.070312 Z M 223.960938 103.699219 C 224.25 104.277344 224.34375 104.953125 224.25 105.628906 C 224.152344 106.496094 223.671875 107.75 222.707031 107.652344 C 221.066406 107.460938 221.164062 104.566406 222.222656 103.507812 C 223.089844 102.542969 223.574219 103.023438 223.960938 103.699219 Z M 230.421875 102.542969 C 227.238281 110.160156 224.730469 118.839844 226.179688 120.191406 C 228.492188 122.3125 232.542969 120.769531 232.542969 120.769531 C 232.929688 120.578125 233.316406 120.769531 233.507812 121.15625 C 233.699219 121.542969 233.507812 121.929688 233.121094 122.121094 C 233.027344 122.121094 231.386719 122.796875 229.457031 122.796875 C 228.011719 122.796875 226.46875 122.507812 225.214844 121.347656 C 222.320312 118.746094 227.914062 104.855469 229.070312 102.058594 C 229.265625 101.671875 229.648438 101.480469 230.035156 101.671875 C 230.421875 101.769531 230.613281 102.253906 230.421875 102.542969 Z M 229.167969 130.707031 C 229.167969 130.320312 229.554688 130.03125 229.941406 130.03125 C 236.59375 130.800781 240.550781 124.917969 240.550781 124.820312 C 240.742188 124.53125 241.222656 124.4375 241.515625 124.628906 C 241.804688 124.820312 241.898438 125.304688 241.707031 125.59375 C 241.515625 125.882812 237.753906 131.476562 231.097656 131.476562 C 230.613281 131.476562 230.230469 131.476562 229.746094 131.378906 C 229.359375 131.476562 229.070312 131.1875 229.167969 130.707031 Z M 354.457031 285.703125 L 333.816406 280.300781 L 342.207031 228.890625 C 342.304688 228.507812 342.015625 228.21875 341.628906 228.121094 L 325.328125 225.515625 L 323.691406 203.140625 C 323.691406 202.945312 323.59375 202.753906 323.496094 202.65625 C 323.402344 202.5625 323.207031 202.464844 323.015625 202.464844 L 233.796875 208.925781 C 233.410156 208.925781 233.121094 209.3125 233.121094 209.699219 L 236.691406 258.503906 C 235.246094 258.214844 234.085938 258.019531 233.796875 257.925781 L 233.605469 257.828125 C 232.738281 257.539062 231.675781 257.25 230.613281 257.636719 C 228.011719 258.40625 228.011719 261.492188 228.011719 262.652344 C 228.011719 264.867188 228.492188 266.992188 229.554688 268.917969 C 229.746094 269.304688 230.230469 269.59375 230.808594 269.882812 C 231 269.980469 231.484375 270.171875 231.484375 270.171875 C 231.578125 270.464844 231.578125 270.464844 231.484375 270.847656 L 231.386719 271.042969 C 231.195312 271.910156 230.902344 272.777344 230.808594 273.839844 C 230.421875 277.3125 233.507812 280.878906 235.535156 283.097656 C 234.953125 284.253906 234.953125 285.796875 235.339844 287.632812 C 235.917969 290.332031 237.558594 293.320312 239.296875 295.445312 L 232.832031 335.277344 C 232.832031 335.472656 232.832031 335.664062 232.929688 335.761719 C 233.027344 335.953125 233.21875 336.050781 233.410156 336.050781 L 321.761719 350.421875 C 321.761719 350.421875 321.859375 350.421875 321.859375 350.421875 C 321.953125 350.421875 322.148438 350.421875 322.242188 350.324219 C 322.4375 350.226562 322.53125 350.035156 322.53125 349.84375 L 324.945312 334.796875 L 324.269531 334.890625 L 323.59375 334.601562 L 321.277344 348.878906 L 234.375 334.890625 L 240.550781 296.699219 C 240.839844 296.988281 241.128906 297.179688 241.320312 297.371094 C 240.261719 299.011719 239.96875 300.460938 240.355469 301.90625 C 240.933594 303.835938 243.058594 305.476562 246.625 306.730469 C 248.363281 307.308594 254.921875 307.984375 261.191406 308.65625 C 264.855469 309.042969 268.230469 309.429688 270.0625 309.71875 C 270.738281 309.816406 271.414062 310.105469 271.992188 310.394531 L 276.621094 313.382812 L 275.945312 316.757812 C 275.65625 318.011719 276.332031 319.265625 277.488281 319.847656 L 294.660156 327.753906 C 294.753906 327.851562 294.949219 327.851562 295.042969 327.851562 C 295.140625 327.851562 295.238281 327.851562 295.332031 327.753906 C 295.816406 327.5625 296.394531 327.273438 308.257812 274.898438 L 354.070312 286.957031 C 354.167969 286.957031 354.167969 286.957031 354.265625 286.957031 C 354.554688 286.957031 354.84375 286.761719 354.941406 286.472656 C 355.035156 286.183594 354.84375 285.796875 354.457031 285.703125 Z M 234.570312 210.179688 L 322.4375 203.816406 L 323.980469 225.132812 L 253.378906 213.652344 C 253.183594 213.652344 252.992188 213.652344 252.894531 213.75 C 252.703125 213.847656 252.605469 214.039062 252.605469 214.230469 L 245.179688 259.851562 C 243.152344 259.5625 240.355469 259.082031 238.136719 258.695312 Z M 272.765625 309.234375 C 271.992188 308.753906 271.21875 308.464844 270.351562 308.367188 C 268.519531 308.078125 265.046875 307.691406 261.382812 307.308594 C 255.691406 306.730469 248.652344 305.957031 247.109375 305.378906 C 244.019531 304.316406 242.1875 302.96875 241.707031 301.519531 C 241.417969 300.460938 241.707031 299.300781 242.574219 297.953125 C 244.601562 298.242188 253.183594 299.589844 256.65625 300.074219 C 256.65625 300.074219 256.753906 300.074219 256.753906 300.074219 C 257.042969 300.074219 257.429688 299.785156 257.429688 299.496094 C 257.523438 299.109375 257.234375 298.820312 256.847656 298.722656 C 253.183594 298.242188 243.828125 296.699219 242.574219 296.503906 C 240.550781 295.25 237.65625 291.105469 236.789062 287.246094 C 236.402344 285.703125 236.5 284.542969 236.882812 283.675781 C 239.679688 283.964844 254.246094 285.316406 260.03125 285.703125 C 260.03125 285.703125 260.03125 285.703125 260.128906 285.703125 C 260.515625 285.703125 260.804688 285.414062 260.804688 285.027344 C 260.804688 284.640625 260.515625 284.351562 260.128906 284.253906 C 254.148438 283.773438 239.007812 282.421875 236.789062 282.230469 C 234.953125 280.109375 231.964844 276.828125 232.253906 273.839844 C 232.351562 272.96875 232.542969 272.101562 232.832031 271.332031 L 232.929688 271.136719 C 233.027344 270.945312 233.027344 270.753906 233.027344 270.558594 C 236.59375 271.042969 249.90625 272.679688 254.921875 273.742188 C 254.921875 273.742188 255.015625 273.742188 255.015625 273.742188 C 255.304688 273.742188 255.59375 273.550781 255.691406 273.164062 C 255.789062 272.777344 255.5 272.390625 255.210938 272.390625 C 249.710938 271.234375 234.664062 269.304688 232.542969 269.113281 C 232.253906 268.917969 231.867188 268.726562 231.484375 268.535156 C 231.289062 268.4375 230.902344 268.246094 230.808594 268.246094 C 229.84375 266.507812 229.457031 264.578125 229.457031 262.652344 C 229.457031 260.433594 229.941406 259.273438 231.097656 258.984375 C 231.289062 258.890625 231.484375 258.890625 231.675781 258.890625 C 232.15625 258.890625 232.738281 259.082031 233.316406 259.179688 L 233.507812 259.273438 C 234.859375 259.660156 246.335938 261.398438 246.820312 261.492188 C 247.011719 261.492188 247.300781 261.492188 247.398438 261.300781 C 248.652344 259.949219 252.21875 256.382812 253.570312 255.609375 C 256.65625 253.875 259.839844 254.835938 261.382812 256.476562 C 264.855469 259.949219 273.34375 267.761719 273.34375 267.859375 C 273.4375 267.957031 273.4375 267.957031 273.535156 267.957031 L 285.109375 272.875 L 276.910156 311.9375 Z M 294.660156 326.210938 L 278.070312 318.59375 C 277.488281 318.304688 277.105469 317.628906 277.296875 317.050781 L 287.136719 270.171875 C 287.230469 269.789062 287.425781 269.402344 287.808594 269.210938 C 288.003906 269.113281 288.292969 269.015625 288.484375 269.015625 C 288.582031 269.015625 288.773438 269.015625 288.871094 269.113281 L 306.90625 274.609375 C 302.566406 293.804688 296.105469 321.871094 294.660156 326.210938 Z M 307.96875 273.453125 L 289.351562 267.761719 C 288.582031 267.570312 287.808594 267.664062 287.136719 268.050781 C 286.460938 268.4375 285.976562 269.113281 285.785156 269.882812 L 285.398438 271.621094 L 274.210938 266.894531 C 273.34375 266.027344 265.53125 258.890625 262.347656 255.609375 C 260.417969 253.582031 256.558594 252.425781 252.894531 254.546875 C 251.253906 255.417969 247.6875 259.179688 246.625 260.238281 C 246.625 260.238281 246.527344 260.238281 246.527344 260.238281 L 253.859375 215.390625 L 340.859375 229.566406 L 332.660156 280.203125 Z M 228.976562 145.945312 C 225.984375 145.75 221.933594 145.171875 220.390625 143.242188 C 217.59375 139.578125 217.113281 121.542969 218.558594 106.976562 L 218.75 93.957031 C 218.75 93.957031 218.847656 90.390625 218.847656 86.917969 C 218.847656 86.628906 218.945312 86.242188 219.523438 85.855469 C 220.292969 85.277344 222.128906 84.890625 222.898438 85.277344 C 225.308594 86.242188 231.675781 88.265625 237.945312 85.375 C 245.179688 82.09375 254.148438 85.664062 255.210938 86.046875 C 256.367188 86.53125 256.945312 87.6875 256.847656 88.84375 C 256.558594 91.933594 255.886719 100.804688 255.980469 102.058594 C 256.078125 102.445312 256.847656 105.144531 258.394531 107.460938 C 260.515625 102.445312 265.53125 99.457031 270.257812 100.804688 C 272.765625 101.480469 274.789062 103.3125 276.042969 105.820312 C 277.199219 108.328125 277.394531 111.320312 276.621094 114.117188 C 275.273438 118.746094 271.511719 122.121094 267.363281 122.507812 C 268.328125 124.917969 268.90625 125.980469 269.292969 126.460938 C 271.894531 130.03125 276.332031 128.871094 276.527344 128.871094 C 276.71875 128.777344 276.910156 128.871094 277.105469 128.96875 C 277.296875 129.066406 277.394531 129.257812 277.394531 129.453125 L 277.777344 137.265625 C 277.777344 137.070312 277.777344 136.878906 277.683594 136.878906 C 277.683594 136.78125 277.683594 136.492188 277.394531 136.394531 C 277.105469 136.300781 277.007812 136.300781 276.816406 136.300781 C 276.621094 136.300781 276.527344 136.492188 276.527344 136.492188 L 276.332031 136.683594 L 276.042969 130.222656 C 274.402344 130.414062 270.640625 130.511719 268.132812 127.136719 C 267.460938 126.269531 266.6875 124.53125 265.625 121.929688 C 265.53125 121.734375 265.53125 121.445312 265.722656 121.253906 C 265.820312 121.058594 266.011719 120.964844 266.300781 120.964844 C 270.257812 121.058594 274.019531 117.972656 275.273438 113.535156 C 275.945312 111.027344 275.851562 108.425781 274.789062 106.207031 C 273.726562 103.988281 271.992188 102.542969 269.871094 101.867188 C 265.53125 100.613281 260.707031 103.796875 259.261719 108.90625 C 259.164062 109.101562 258.972656 109.292969 258.777344 109.390625 C 258.488281 109.484375 258.296875 109.390625 258.101562 109.195312 C 255.691406 106.304688 254.726562 102.347656 254.632812 102.253906 C 254.632812 102.253906 254.632812 102.15625 254.632812 102.15625 C 254.535156 100.902344 255.210938 91.640625 255.5 88.554688 C 255.59375 87.976562 255.210938 87.398438 254.726562 87.207031 C 253.761719 86.820312 245.273438 83.445312 238.621094 86.53125 C 231.867188 89.617188 225.117188 87.496094 222.511719 86.433594 C 222.128906 86.242188 220.679688 86.628906 220.292969 86.917969 C 220.292969 90.390625 220.199219 93.859375 220.199219 93.859375 L 220.199219 94.34375 C 225.117188 93.859375 228.011719 97.140625 228.105469 97.238281 C 228.394531 97.527344 228.300781 98.007812 228.011719 98.296875 C 227.914062 98.394531 227.722656 98.492188 227.527344 98.492188 C 227.335938 98.492188 227.140625 98.394531 226.949219 98.203125 C 226.851562 98.105469 224.441406 95.402344 220.101562 95.789062 L 219.910156 106.976562 C 218.367188 122.507812 219.136719 139.386719 221.453125 142.28125 C 222.707031 143.824219 226.949219 144.402344 229.941406 144.496094 C 229.84375 144.496094 229.746094 144.496094 229.746094 144.496094 C 229.167969 144.496094 229.070312 144.980469 229.070312 144.980469 Z M 228.976562 145.945312 " fill-opacity="1" fill-rule="nonzero"/></svg>